<svg version="1" xmlns="http://www.w3.org/2000/svg" width="1365.333" height="1365.333" viewBox="0 0 1024.000000 1024.000000"><path d="M456 20.5c0 .4 2.5 3.4 5.5 6.7 5.6 6.1 7.3 10.8 3.8 10.8-2.4 0-1.2.8 2.1 1.4 4.2.8 10.7 4.5 17.7 10.1C498.2 60.1 497.9 59.7 500 69c1.1 4.7 2.9 11.6 4 15.5 2.1 7.4 2.5 12 1.2 12.9-1.1.7-4.6-2.6-12.6-11.9-3.8-4.4-7.3-8.2-7.8-8.3-2.7-1.1 1.8 6 10.2 15.8 10.3 12.1 15.3 22.2 11.6 23.6-2.8 1.1-5.9-.4-11.4-5.2-6.2-5.5-11.7-12.6-16.1-21-1.7-3.2-3.5-6.6-4-7.4-2-3.2-16.5-27.6-17.6-29.5-2.9-5.4-9.8-15.5-10.2-15.1-.5.4 5.2 11.6 11.7 23.1 5.5 9.7 15.3 25.6 22.6 36.6 4.6 7 8.4 13.2 8.4 13.8 0 2.3-4.8.9-15.5-4.8-14.5-7.7-28-16.4-29-18.8-.4-1-1.9-6.5-3.4-12.3-1.5-5.8-3.8-13.4-5.1-17-1.2-3.6-2.5-7.2-2.8-8-.3-1-.8-.3-1.5 1.7-1.2 4-2.9 4.2-11.3 1.2-9.1-3.1-24.4-2.5-24.4 1 0 .5 2.6 1.5 5.8 2.1 18.8 3.7 25.3 7.4 32.7 18.6 8.8 13.2 17.1 33.4 13.8 33.4-.5 0-2.7-1.5-4.9-3.4-2.1-1.8-5.4-4.1-7.1-5-9.3-4.8-13.5-12.4-7.8-14.3 2.4-.8 2.5-.9.9-3.1-4-5.8-25.5-13.1-40.3-13.7-9.4-.4-21 1.5-25 4.2l-2.5 1.6 4.4 1.3c2.5.8 8.1 1.7 12.5 2 12.1 1 15.8 3.1 9.8 5.5-1.6.6-5.1 2.2-7.9 3.6-2.8 1.3-6.4 2.6-7.9 2.9-1.6.3-3.2.7-3.5.9-.4.3-3.1.7-6 1.1-5.1.6-5.5.5-7.9-2.5l-2.6-3.2-3.5 2.3c-5.1 3.5-11.2 12-17.3 24.3-7.9 15.7-9.7 21.9-11.2 37-.7 7-2.7 12.5-4.5 12.5-.6 0-1 .4-1 .8 0 .5 2.3.4 5.1-.2 4-.8 5.2-.7 5.9.3 1.1 1.8.7 2.7-5.6 14.1-4.7 8.7-16 32.2-18.4 38.5l-1 2.6 2.8-2c3.1-2.2 25.1-7.2 34.5-7.9 5.2-.3 5.8-.2 5.5 1.4-.1.9-2.5 3.2-5.3 5.1-2.7 1.9-5.7 3.9-6.5 4.6-.9.7-3.7 2.2-6.3 3.4-2.6 1.3-4.7 2.7-4.7 3.2s-2 1.7-4.5 2.6c-2.5 1-5 2.4-5.7 3.3-1.1 1.3-.7 1.4 3 .7 2.3-.4 5-.8 6-1 2.8-.4 5 1.3 6.2 5 1.7 5 .6 7.9-4.1 11.7l-4 3.2.2 7c.2 7 .2 7-3.6 10.3-2.1 1.8-5.6 3.8-7.7 4.5-5.4 1.6-8.1.1-9.8-5.3l-1.3-4.4-2.4 5c-2.1 4.3-2.3 6-1.9 12.5.3 4.1 1.7 13.8 3.2 21.5 3.8 20.5 4 25.2 1.6 31.7-1.1 3-2.3 7.5-2.7 10.1-.7 4.3-.4 5 2.8 9.4 1.9 2.7 5.4 6.3 7.6 8.1 3.1 2.5 5.4 6 9.2 13.8 3.8 7.7 5.6 10.4 7 10.4 1.2 0 2.1 1 2.5 2.7.4 1.6 1.7 4.3 3 6.2 3.4 5.1 2 6.9-6.1 7.7-8 .7-10.1 1.1-12 2.2-2.3 1.2-8.2 7.2-7.1 7.2.4 0-.1.9-1.1 2-2.5 2.6-5.6 11.6-5 14 .3 1.1.2 1.8-.3 1.5-1.3-.8-1.9 2.2-.7 3.4.7.7.8 1.1 0 1.1-.6 0-1.3 2.3-1.7 5-.4 2.8-2.9 11.5-5.7 19.3-2.8 7.8-6.8 19.1-8.9 25.2-4.7 13.1-4.9 14.5-5.5 35-.3 8.8-.7 19.5-.9 23.7-.4 10.2.6 12.2 18.9 36.7 3.4 4.6 13.8 14 17.5 16 3.7 1.9 5.9 2.3 12 2.2 4.1-.1 8.8-.3 10.4-.5l2.9-.4-.6 12.2c-.7 12.2-4.1 44.2-5.2 48.6-.2.8-.7 5.3-1 10-.4 4.7-.9 10.3-1.1 12.5-1 7.8-1.2 42.5-.3 41.9.5-.3.9.5 1 1.8.4 10.8 2.7 22.4 7.4 36.3 1.9 5.8 3.5 11 3.5 11.6 0 .6 1.4 4.2 3.1 8 1.6 3.9 2.9 7.8 2.8 8.7-.3 3.4.2 4.2 6 10.4 6.1 6.5 14.1 18.1 14.1 20.4 0 .7 1 1.8 2.1 2.5 1.2.6 3.2 2.3 4.5 3.8 2.8 3.1 9.4 15.3 9.4 17.3 0 .8 1.2 3.8 2.7 6.8 1.6 3.3 2.9 7.7 3.1 11l.4 5.6-13.3 12.9c-7.3 7.2-16.7 16.3-20.8 20.4-4.2 4.1-10.6 9.6-14.3 12.3-3.8 2.7-6.8 5.4-6.8 5.9s-.5.9-1.1.9c-.6 0-3 1.6-5.3 3.6-2.2 1.9-4.6 3.8-5.1 4.2-4.6 3.2-9.1 6.8-9.7 7.6-.4.6-.8.7-.8.2 0-.5-.6-.4-1.2.2-.9.6-2.9.5-6.3-.3-2.7-.7-8.1-1.3-12-1.2-8.8.2-16.3 3.7-28.5 13.2-4.7 3.6-9.8 7.5-11.5 8.7-1.6 1.1-4.2 3.9-5.7 6.2-1.5 2.2-4.8 6.5-7.3 9.3-3.7 4.2-5.1 5.2-6.8 4.8-1.8-.5-2.5 0-3.6 2.7-1.8 4.4-2.2 6-2.2 8.1 0 .9-.4 1.5-.9 1.2-.6-.3-.7.1-.4.9.3.8-.2 2.9-1.2 4.7-.9 1.8-2.7 6.1-3.9 9.6-1.2 3.5-2.5 6-3 5.6-.4-.5-.5-.3-.2.3.7 1.2-1.3 8.5-2.2 8-.3-.2-.7.8-.8 2.2 0 1.4-.9 3.2-1.9 3.9-1.5 1.1 51.3 1.3 298.7 1.1 165.2-.1 298-.3 295.2-.5-5.9-.4-7-2.2-2.7-4.2 5.4-2.4.5-4.7-36.6-17.1-11.7-4-23.7-7.8-26.6-8.6-3-.7-9.4-3.4-14.3-5.9l-9-4.5-.1-23.7c-.1-28.1-.1-27.5-1-28.8-.4-.6-1.3-3.3-1.9-6.1-1.5-6.2-5.9-11.9-10.5-13.4-3.4-1.1-4.5-3-3.8-6.3.2-1.2 1.3-1.7 3.8-1.7 2.2 0 3.4-.5 3.4-1.3 0-3.9-11.1-8.1-21.1-7.9-5 .1-7.1-.3-8.7-1.6-2.1-1.8-2.1-3.1-.8-14.7 1.7-13.8 2.5-18.5 3.9-20.9.6-1.1 1.2-2.3 1.2-2.6 1.5-9.1 4.2-15 7.9-16.9 4.1-2.2 12.5-11.8 15.7-17.9 1.6-3.1 2.9-6 2.9-6.3 0-.4 2.5-5.9 5.6-12.3 3-6.3 5.7-12.4 6-13.6.2-1.1.7-3 1-4.2.4-1.3.8-5.2 1-8.7.4-7.1 1.2-12.9 1.9-14.1.8-1.3 1.6-10.3 2-22 .2-6.3.6-14.7 1-18.5.4-3.9.9-13.3 1.1-21 .2-7.7.6-17.2.8-21 .3-3.9.7-15.1 1-25 .3-9.9.8-19.1 1.1-20.5.3-1.4.7-3.9.9-5.5.7-5.5 1.9-9 3.5-10.9 1.9-2.3 8.8-5.5 11.7-5.6 3.3 0 15.7-4.1 17.7-5.8.9-.8 1.7-1.2 1.7-.7 0 .4 1.1 0 2.5-.9s2.5-1.4 2.5-1.1c0 .3 2-.8 4.4-2.4 3.6-2.5 4.9-4.4 8.1-11.8 2.1-4.9 3.7-10.1 3.6-11.8-1.4-20.1-3.1-30.9-6.6-41-2-5.6-4.5-23.4-5-35.1-1.1-25.9-2-34.4-3.4-35.4-.5-.3-2.8-4.3-5.2-9-4.4-8.7-14.3-20-17.4-20-.8 0-1.5-.5-1.5-1 0-.6-.9-1-2-1s-2-.4-2-.8c0-.8-7.3-3.2-11.5-3.8-1.1-.1-2.9-.5-4-.8-1.1-.2-3.3-.5-4.8-.5-4-.1-4.3-2.4-.9-8.8 1.6-3.2 3.5-8.1 4.1-11 .7-2.8 1.9-5.4 2.6-5.7 1.9-.7 4-5.9 8.1-20.3 1.9-6.7 4.3-13.7 5.3-15.5 1.1-1.8 2.2-5.3 2.5-7.8.7-5.8 1.1-7.5 3-14 1.7-5.9 2.1-10 .8-10-.5 0-2.3 3.3-4.1 7.4-1.8 4.1-4.1 8.2-5.1 9.1-1.7 1.6-2 1.5-3.9-.4-2.9-2.9-2.7-8.3.5-18.7 1.9-5.9 2.4-9.5 2-12.1-2.1-13-2.1-14.1 1.3-17.2 3.1-2.9 3.2-3.2 2.5-9-.8-7.3.1-13.1 2.1-13.1.8 0 2.5 1 3.7 2.2l2.1 2.1-.6-4.7c-.4-2.6-1.5-6-2.6-7.4-3.3-4.8-6.1-14-6.1-20.2 0-6.6.9-7.4 4.7-3.8 3.8 3.5 3 .9-4.6-16.2-4.3-9.5-6.4-16.2-11.7-36-2-7.4-4.9-16.9-6.5-21-5.2-13.5-5.5-21.5-.9-20.3 3.3.9 9.1 10.5 10.3 17.3.3 1.4 1.9 5.9 3.5 10 1.7 4.1 3.4 8.7 3.7 10.3 2.4 9.4 2.6-5 .4-29.8-1.2-14.1-2.9-22.7-6.4-32.6-2.3-6.6-7.8-17.7-9.4-18.9-.4-.3-1.7-1.9-2.9-3.7-1.2-1.7-4.3-4.5-6.9-6.2-3.9-2.6-5.6-3.1-10.9-3.1-3.4 0-7.4-.6-8.9-1.4-3.3-1.7-5.5-1.1-5.5 1.5 0 1 3.8 9.1 8.4 18.1 4.6 9 8.7 17.9 9.1 19.8.5 1.9.8 8.6.7 14.8-.1 10.8.1 12.6 5.3 32.7 5.9 23.1 6.3 25.5 4 25.5s-5.4-4.2-11-14.8l-5.1-9.7-4 .3c-5.7.5-6.4-1.8-2-6.3 5.9-5.8 5.7-7.8-1.3-16.5-4.9-6-7.8-8.6-12.8-11-4.7-2.2-6.3-4.5-6.3-8.9 0-2.5.8-3.6 3.9-5.5 2.2-1.4 4.2-2.9 4.5-3.4.3-.4.2-3.4-.1-6.5-.4-4-1-5.7-2-5.7-.8 0-4.6-1.8-8.6-3.9-10.1-5.5-14.9-6.6-19.7-4.7-2.1.8-4 1.2-4.4.9-1.8-1.8.3-4.9 8.8-12.7 17.1-15.7 13.6-18.2-11-8-8.8 3.6-13.4 4.3-13.4 2 0-1.9 3.1-5 14-14C658.6 66.7 661.9 63 657.2 63c-2.7 0-16.9 7.5-31.8 16.8-10.2 6.4-13.9 8.2-16.7 8.2-3.3 0-3.7-.3-3.7-2.6 0-2.1 2.8-5.4 13-15.4 7.2-7 13-13.2 13-13.9 0-1.5-4.6.4-14.6 6.3-8 4.7-11.1 5.5-13.2 3.4-.9-.9-2-.1-4.8 3.1-3.1 3.4-4.2 4.1-6.2 3.6-1.3-.3-2.9-.2-3.5.4-1.2.9-4 1.4-6.4 1.2-.7 0-1.3-1-1.3-2 0-3 12.1-10.5 36.1-22.4C636.8 40 647 33.5 647 30.8c0-.7-2.4-.9-7.2-.5-6.9.5-14.2 2.6-35.1 10.3l-7.8 2.9-1.8-2.4c-1.4-1.8-2.3-2.2-4.1-1.6-3.2 1-23.3 21.3-36.8 37.2-14.2 16.6-19.5 21.5-22.5 20.4-1.8-.7-2.2-1.7-2.5-6.4-.2-4.4.1-5.8 1.5-6.9 1.4-1 1.8-2.7 1.8-7.9 0-5.5.6-7.6 3.7-14 3.8-7.5 8.5-14.3 16.8-23.9 6.6-7.7 6.1-8.4-1-1.5-9.5 9.2-14.5 16.2-20.7 28.7-2 4.2-3.9 6.8-4.9 6.8-.9 0-2.8-1.4-4.2-3.2-8.6-10.3-21.2-22.2-36.3-34.2-4-3.3-13.8-9.5-18.1-11.5-4.9-2.3-11.8-3.9-11.8-2.6zM320.9 416.1c-1.9 1.1-2.4.3-.8-1.4.8-.9 1.6-1.1 1.8-.5.2.6-.3 1.4-1 1.9zm-12.8 18.6c1.3 1.6 1.2 1.7-.3.5-.9-.8-2.3-1-2.9-.6-.8.4-.9.3-.5-.4 1-1.7 2.1-1.5 3.7.5zm11.5 7.9c-.3.8-1.1 1.4-1.8 1.3-1 0-1-.2 0-.6.7-.2 1.3-2.5 1.4-5.1.1-4.5.1-4.6.5-.8.3 2.1.2 4.4-.1 5.2zM287 572.5c1.4 1.9 1.4 1.9-.2.6-1-.7-1.8-1.8-1.8-2.4 0-.6.1-.8.3-.6.1.2.9 1.3 1.7 2.4zm3.1 4.2c1.3 1.6 1.2 1.7-.3.4-1.7-1.3-2.2-2.1-1.4-2.1.2 0 1 .8 1.7 1.7zM823.5 1021.9c-.6.5-2.8 1.1-5 1.4-2.2.2 1 .4 7 .4 7.8 0 9.7-.2 6.5-.7-2.5-.4-5.2-1-6-1.4-.9-.3-2-.2-2.5.3z"/></svg>